<svg xmlns="http://www.w3.org/2000/svg" width="27.111" height="32.187" viewBox="0 0 27.111 32.187">
  <path id="Apple_University-Logo.wine" d="M26.543,25.083a17.5,17.5,0,0,1-1.73,3.111,15.81,15.81,0,0,1-2.229,2.694,4.324,4.324,0,0,1-2.865,1.262,7.181,7.181,0,0,1-2.646-.632,7.594,7.594,0,0,0-2.849-.63,7.851,7.851,0,0,0-2.93.63,7.882,7.882,0,0,1-2.532.666,4.072,4.072,0,0,1-2.93-1.3A16.6,16.6,0,0,1,3.5,28.1a19.293,19.293,0,0,1-2.466-4.9A17.932,17.932,0,0,1,0,17.365a10.659,10.659,0,0,1,1.4-5.576A8.211,8.211,0,0,1,4.331,8.823,7.885,7.885,0,0,1,8.294,7.7a9.332,9.332,0,0,1,3.065.713,9.854,9.854,0,0,0,2.431.715,14.55,14.55,0,0,0,2.7-.842,8.911,8.911,0,0,1,3.665-.651,7.781,7.781,0,0,1,6.1,3.209,6.78,6.78,0,0,0-3.6,6.159,6.8,6.8,0,0,0,2.231,5.12,7.332,7.332,0,0,0,2.229,1.462q-.268.778-.568,1.492ZM20.333.644a6.866,6.866,0,0,1-1.76,4.5,6,6,0,0,1-4.981,2.459A5.011,5.011,0,0,1,13.554,7a7.055,7.055,0,0,1,1.867-4.551A7.19,7.19,0,0,1,17.7.737,6.783,6.783,0,0,1,20.3,0a5.843,5.843,0,0,1,.034.644Z" transform="translate(0 0)"/>
</svg>
