<svg xmlns="http://www.w3.org/2000/svg" width="25" height="21.552" viewBox="0 0 25 21.552">
  <path id="Email" d="M18.674,21.552H6.325A6.2,6.2,0,0,1,0,15.505V6.046A6.2,6.2,0,0,1,6.325,0H18.674a6.509,6.509,0,0,1,4.475,1.774A5.876,5.876,0,0,1,25,6.046v9.459A6.2,6.2,0,0,1,18.674,21.552ZM5.043,6.281a.937.937,0,0,0-.668.269.886.886,0,0,0-.089,1.2l.164.155,5.687,4.251a4.021,4.021,0,0,0,2.438.814,4.087,4.087,0,0,0,2.448-.814l5.64-4.322.1-.1a.9.9,0,0,0-.015-1.2,1.057,1.057,0,0,0-.66-.311h-.053a.973.973,0,0,0-.649.241l-5.636,4.31a2.009,2.009,0,0,1-1.246.432,2.045,2.045,0,0,1-1.254-.432L5.625,6.466A1,1,0,0,0,5.043,6.281Z" fill="#61747b"/>
</svg>
