<svg xmlns="http://www.w3.org/2000/svg" width="30.857" height="31.484" viewBox="0 0 30.857 31.484">
  <g id="Google" transform="translate(0 0)">
    <path id="Path_17432" data-name="Path 17432" d="M87.113,62.206a18.756,18.756,0,0,0-.271-3.2H72v6.063h8.5a7.287,7.287,0,0,1-3.144,4.784v3.935H82.43A15.394,15.394,0,0,0,87.113,62.206Z" transform="translate(-56.256 -46.105)" fill="#4285f4"/>
    <path id="Path_17433" data-name="Path 17433" d="M21.732,98.514a15.066,15.066,0,0,0,10.433-3.8L27.09,90.779a9.548,9.548,0,0,1-14.2-4.994H7.667v4.056a15.742,15.742,0,0,0,14.065,8.673Z" transform="translate(-5.991 -67.03)" fill="#34a853"/>
    <path id="Path_17434" data-name="Path 17434" d="M6.9,49.756a9.432,9.432,0,0,1,0-6.026V39.675H1.676a15.742,15.742,0,0,0,0,14.137Z" transform="translate(0 -31.001)" fill="#fbbc04"/>
    <path id="Path_17435" data-name="Path 17435" d="M21.733,6.232a8.546,8.546,0,0,1,6.039,2.361L32.264,4.1A15.125,15.125,0,0,0,21.733,0,15.741,15.741,0,0,0,7.668,8.674L12.9,12.73a9.416,9.416,0,0,1,8.837-6.5Z" transform="translate(-5.992 0)" fill="#ea4335"/>
  </g>
</svg>
