<svg xmlns="http://www.w3.org/2000/svg" width="22.346" height="21.325" viewBox="0 0 22.346 21.325">
  <g id="Jobs" opacity="0.6">
    <g id="Group_9" data-name="Group 9" transform="translate(5.928 0)">
      <path id="Path_7857" data-name="Path 7857" d="M78.2,9.2v1.485h2.248V9.2a2.939,2.939,0,0,1,2.958-2.931c.026-.013.053,0,.066,0a2.977,2.977,0,0,1,2.984,2.918v1.5h2.235V9.2A5.192,5.192,0,0,0,83.5,4.06h-.079a5.258,5.258,0,0,0-3.68,1.5A5.067,5.067,0,0,0,78.2,9.2Z" transform="translate(-78.2 -4.06)" fill="#61747b"/>
    </g>
    <path id="Path_7858" data-name="Path 7858" d="M74.71,9.484l1.827,1.827a11.329,11.329,0,0,0,16.01,0l1.827-1.827A4.971,4.971,0,0,0,90.759,7.92H78.325A4.971,4.971,0,0,0,74.71,9.484Z" transform="translate(-73.369 -2.846)" fill="#61747b"/>
    <path id="Path_7859" data-name="Path 7859" d="M73.69,12.24v5.968a4.959,4.959,0,0,0,4.955,4.955H91.08a4.959,4.959,0,0,0,4.955-4.955V12.24a4.883,4.883,0,0,0-.565-2.3L93.8,11.609a12.662,12.662,0,0,1-17.876,0L74.255,9.94A4.883,4.883,0,0,0,73.69,12.24Z" transform="translate(-73.69 -1.838)" fill="#61747b"/>
  </g>
</svg>
