<svg xmlns="http://www.w3.org/2000/svg" width="22.201" height="21.084" viewBox="0 0 22.201 21.084">
  <g id="Group_697" data-name="Group 697" transform="translate(0.521 0.539)">
    <g id="Heart" transform="translate(0 0)" opacity="0.6">
      <path id="Path_33961" d="M10.313,19.883a38.8,38.8,0,0,1-6.706-5.221A13.353,13.353,0,0,1,.415,9.572c-1.2-3.725.2-7.99,4.118-9.252a6.658,6.658,0,0,1,6.041,1.018h0A6.668,6.668,0,0,1,16.617.32c3.917,1.262,5.327,5.527,4.128,9.252a13.353,13.353,0,0,1-3.192,5.089,38.8,38.8,0,0,1-6.706,5.221l-.262.163Z" transform="translate(0 0)" fill="#61747b" stroke="#61747b" stroke-linecap="round" stroke-linejoin="round" stroke-miterlimit="10" stroke-width="1"/>
      <path id="Path_33964" d="M0,0A3.1,3.1,0,0,1,2.135,2.7" transform="translate(14.744 4.514)" fill="none" stroke="#fff" stroke-linecap="round" stroke-linejoin="round" stroke-miterlimit="10" stroke-width="4"/>
    </g>
  </g>
</svg>
