<svg xmlns="http://www.w3.org/2000/svg" width="25" height="29.411" viewBox="0 0 25 29.411">
  <path id="Lock" d="M18.724,29.411H6.277A6.216,6.216,0,0,1,0,23.273V16.012A6.124,6.124,0,0,1,4.378,10.19V7.936A8.047,8.047,0,0,1,12.478,0a8.2,8.2,0,0,1,5.764,2.324,7.787,7.787,0,0,1,2.38,5.612V10.19A6.124,6.124,0,0,1,25,16.012v7.261A6.215,6.215,0,0,1,18.724,29.411Zm-6.231-12.67a1.287,1.287,0,0,0-1.3,1.272v3.244a1.307,1.307,0,0,0,2.614,0V18.013A1.3,1.3,0,0,0,12.493,16.741Zm.015-14.184A5.458,5.458,0,0,0,6.993,7.905V9.873H18.007V7.936A5.446,5.446,0,0,0,12.507,2.557Z" fill="#61747b"/>
</svg>
