<svg xmlns="http://www.w3.org/2000/svg" width="20.346" height="23.701" viewBox="0 0 20.346 23.701">
  <g id="Notification" transform="translate(-1414 -27)">
    <path id="Notification-2" data-name="Notification" d="M20.339,14.32,19,12.086a4.7,4.7,0,0,1-.558-2V7.868a7.812,7.812,0,1,0-15.623,0v2.21a4.863,4.863,0,0,1-.547,2L.926,14.308a3.156,3.156,0,0,0-.309,2.709,3.125,3.125,0,0,0,2,1.865,26.284,26.284,0,0,0,3.9.962c.131.024.261.036.392.059.166.024.345.048.523.071.309.048.618.083.939.107.748.071,1.509.107,2.269.107s1.5-.036,2.234-.107c.273-.024.547-.048.808-.083.214-.024.428-.048.642-.083.131-.012.261-.036.392-.059a25.024,25.024,0,0,0,3.933-.974A3.148,3.148,0,0,0,20.589,17,3.1,3.1,0,0,0,20.339,14.32ZM11.5,9.5a.9.9,0,0,1-1.806,0V5.813a.9.9,0,1,1,1.806,0Z" transform="translate(1413.561 26.949)" fill="#020a0d"/>
    <path id="Path_4" data-name="Path 4" d="M12.892,18.012A3.581,3.581,0,0,1,9.53,20.376a3.523,3.523,0,0,1-2.519-1.057A3.28,3.28,0,0,1,6.18,18c.154.024.309.036.475.059.273.036.558.071.844.1.677.059,1.366.1,2.055.1s1.354-.036,2.02-.1c.249-.024.5-.036.737-.071Z" transform="translate(1414.64 30.325)" fill="#020a0d"/>
  </g>
</svg>
